<svg width="500" height="500" version="1.1" xmlns="http://www.w3.org/2000/svg" desc="Created with imagetracer.js version 1.2.6" ><path fill="rgb(9,38,141)" stroke="rgb(9,38,141)" stroke-width="1" opacity="0.19215686274509805" d="M 318.5 204 L 335.5 204 L 339 206 L 339 211 L 337 211 L 337 216 L 334 216 L 334 220.5 L 332 221 L 332 223.5 Q 327.8 225 329 231 Q 325 229.6 327 236.5 Q 323.8 238.5 324 243 L 322 243 L 322 249.5 L 320 250.5 L 320 258.5 L 317 260 L 317 268.5 Q 313.3 270.4 315 277 L 317 277.5 L 315 278.5 Q 315.7 275.5 312 277 L 312 288.5 L 310 292 L 306.5 293 L 300 292 Q 301.3 288.7 296.5 290 L 295 287 Q 292 288 293 285 L 289.5 285 L 287 283.5 L 287.5 282 L 283 282 Q 284.1 279.3 281.5 280 L 279 279 L 279 277 Q 274.9 278.3 276 275 L 272.5 275 L 266 270 L 266 268 L 263 268 Q 264.1 265.3 261.5 266 L 259 265 Q 260.1 262.3 257.5 263 L 256 260 L 254 260 Q 255.1 257.3 252.5 258 Q 250 256.8 251 253 Q 247.3 254.3 249 248.5 L 246 245.5 Q 247 240.5 244 239.5 L 244 234 L 246 233.5 L 246 226 L 249 226 L 249 222 L 251 222 L 251 219 Q 254.8 220.5 254 217.5 Q 255.4 214.8 260 216 L 260.5 214 L 289.5 214 L 291.5 216 L 297 217 L 297 219 Q 300.8 217.5 300 220.5 L 303 222.5 L 303 219 L 305 219 L 305 214.5 L 307 214 L 307 211.5 L 308 209 L 318.5 204 Z M 317 211 L 317 213 L 314 215 Q 315 217 312 216 Q 309 219 309 227 L 306 230 Q 301 231 301 228 Q 297 229 298 226 L 296 226 L 290 221 Q 282 222 279 219 L 272 219 L 265 221 L 260 221 Q 261 224 259 223 L 256 227 L 253 228 Q 254 233 251 235 Q 250 240 253 242 Q 251 247 255 246 L 256 250 Q 255 252 258 251 L 265 260 L 265 261 L 268 261 Q 267 264 270 263 L 273 268 L 276 268 L 291 278 Q 293 277 292 280 L 297 281 Q 300 280 299 283 L 302 283 L 302 285 L 305 285 L 306 279 L 308 276 Q 307 268 310 269 L 310 263 L 315 253 L 315 245 L 318 239 Q 317 235 320 236 L 320 232 L 325 225 L 325 221 Q 328 220 327 216 L 330 214 L 330 211 L 317 211 Z " /><path fill="rgb(9,38,141)" stroke="rgb(9,38,141)" stroke-width="1" opacity="0.19215686274509805" d="M 326.5 244 L 327 245.5 L 325 246.5 L 326.5 244 Z " /><path fill="rgb(23,170,231)" stroke="rgb(23,170,231)" stroke-width="1" opacity="0.3803921568627451" d="M 351.5 20 L 443.5 20 L 444 22 L 445.5 22 L 447 23.5 L 447 48.5 L 445 51.5 Q 445.9 58.3 444 61 L 442 61.5 L 442 69.5 Q 438.8 71 440 76 L 437 76 Q 438.5 82.3 435 81.5 L 435 85.5 L 434 88 L 432 88 L 432 92.5 Q 429 91.5 430 96.5 L 427 98 Q 428.3 102.1 425 101 L 425 104.5 L 420 108 L 420 113 Q 417.3 111.9 418 114.5 L 415 116 L 415 118 Q 412.3 116.9 413 119.5 L 412 122 L 410 122 L 410 125 Q 407.3 123.9 408 126.5 L 405 128 Q 406 131 403 130 L 403 133 L 400 133 L 400 135 Q 397.3 133.9 398 136.5 L 393 140 L 389.5 145 L 386.5 147 L 385 150 L 378 152 L 378 155 L 376 155 L 376 157 L 373 157 Q 374.1 159.7 371.5 159 L 369 160 L 369 162 Q 365.3 160.5 366 163.5 Q 364.8 166 361 165 L 361 167 L 359 167 Q 360.1 169.7 357.5 169 L 354 170 Q 355.3 173 351.5 172 L 347 174 L 345.5 177 L 339 179 L 339 182 L 334.5 182 Q 335.3 185.5 329 184 L 329 187 L 324 187 L 324 189 L 320 189 L 320 190.5 L 313.5 194 L 310 194 Q 311.1 196.7 308.5 196 L 305 197 L 305 199 L 300 199 L 300 201 L 293.5 201 L 292 204 Q 287.8 203 286.5 206 L 280 206 L 280 209 Q 273.7 207.5 274.5 211 L 266.5 211 L 266 212.5 Q 264.6 215.3 260 214 L 260 216 L 253.5 216 L 253 218 L 251.5 218 L 246 219 L 246 221 L 236.5 221 L 236 223 L 233.5 223 L 227.5 226 L 219 226 L 219 228 L 209.5 228 L 209 229.5 L 207.5 231 L 199 231 L 199 233 L 194 233 Q 195.1 235.7 192.5 235 Q 191.2 237.2 186.5 236 L 184.5 238 L 177 238 L 175.5 241 L 170 241 L 170 243 L 165 243 L 165 244.5 Q 163.4 247.5 158 246 L 158 248 L 150.5 248 L 150 249.5 L 144.5 253 L 141 253 L 141 255 L 136 255 L 136 256.5 Q 134.6 259.3 130 258 L 130 260 L 126 260 L 126 261.5 Q 124.8 264 121 263 L 121 265 L 116 265 L 116 268 L 112 268 L 112 270 Q 108.3 268.5 109 271.5 L 104.5 275 L 101 275 L 99 280 L 96 280 L 96 282 Q 93.3 280.9 94 283.5 Q 92.8 286 89 285 Q 90 288 87 287 L 87 292 L 84 292 Q 85.3 296.1 82 295 L 82 299 L 79 299 Q 80.5 305.3 77 304.5 L 77 332 Q 80.7 330.6 79 336.5 Q 83 337.9 82 343 Q 85.3 341.9 84 346 L 87 346 L 87 349 L 89 349 L 89 351 Q 91.7 349.9 91 352.5 L 94 354 Q 92.9 356.7 95.5 356 L 97 359 Q 102.3 357.8 101.5 361 L 106 361 L 106.5 363 L 110.5 363 Q 113.3 367.5 121 366 L 121.5 368 L 129.5 368 L 131 371 L 147.5 371 L 148 373 L 149.5 373 L 150.5 372 L 160.5 372 Q 162 374.5 167.5 373 L 169 374.5 L 169 376.5 L 164.5 381 Q 161.7 384.4 155 383 L 154.5 385 L 148 385 L 148 388 L 136.5 388 L 135.5 390 L 97 390 L 97 388 L 87.5 388 L 87 385 L 80 385 L 80 383 L 75 383 Q 76.1 380.3 73.5 381 L 72 378 L 67 378 Q 68 375 65 376 L 65 373 L 60 373 Q 61.1 370.3 58.5 371 L 57 368 L 55 368 L 55 366 Q 52.3 367.1 53 364.5 L 50 363 Q 51 360 48 361 L 48 358 L 45 358 L 45 356 L 43 356 L 43 353 Q 40.3 354.1 41 351.5 L 40 349 Q 36.7 350.3 38 345.5 Q 34 344.1 35 339 L 33 339 L 33 334.5 L 31 334 L 31 331.5 L 30 330.5 L 30 324 L 28 323.5 L 28 297 L 30 296.5 L 30 289.5 L 33 286.5 L 33 282.5 L 35 280.5 Q 34 276 36.5 275 Q 39.5 275.9 38 271.5 L 40 268 L 43 268 L 43 263 Q 45.7 264.1 45 261.5 L 48 260 L 48 258 Q 50.7 259.1 50 256.5 Q 53.8 255.3 53 251 Q 55.7 252.1 55 249.5 L 58 248 Q 56.9 245.3 59.5 246 Q 60.7 242.2 65 243 Q 64 240 67 241 L 67 238 L 70 238 Q 68.9 235.3 71.5 236 L 77 233 L 77 231 L 80 231 Q 78.8 228 82.5 229 L 84 226 L 92 224 L 93.5 221 L 97 221 L 97 219 L 102 219 L 102 216 L 105.5 216 Q 106.8 213 111 214 L 112.5 211 L 116 211 L 116 209 L 121 209 Q 119.9 206.3 122.5 207 L 139 200.5 L 139.5 199 L 146 199 L 146.5 197 L 153 197 L 153 194 L 158.5 194 Q 159.9 190.7 165 192 L 166.5 189 Q 174.4 190.2 173.5 187 L 180.5 187 Q 182.5 182.3 190 184 L 190 182 L 196.5 182 L 197 180.5 L 203.5 177 L 210 177 L 210 175 L 217 175 L 217 172 L 222 172 L 222 170 L 227 170 Q 225.9 167.3 228.5 168 L 234 167 L 234 165 L 239 165 L 239 162 L 244 162 L 244 160 L 249 160 L 249 158.5 L 249.5 157 Q 243.4 155.8 244 158.5 L 242.5 160 L 234.5 160 L 232.5 162 L 215 162 L 215 160 L 205.5 160 L 205 158.5 L 203.5 157 L 197 157 Q 198.3 153.3 192.5 155 L 190 154 Q 191.3 150.7 186.5 152 L 182 148.5 Q 182.7 145.9 180 147 L 180 145 L 177.5 145 L 173 142 L 170 137.5 L 170 135 Q 167 136 168 133 L 165 133 L 165 129.5 Q 162.3 128.4 163 125 L 160 125 L 160 120.5 L 158 120 L 158 113.5 Q 155 114.5 156 109.5 L 155 108.5 L 155 81.5 L 156 78 L 158 78 L 158 72 L 160 72 L 160 67 L 163 67 L 163 62.5 Q 166 63.5 165 58.5 L 168 57 L 168 54 Q 171 55 170 52 L 173 52 L 173 49 Q 176 50 175 47 L 178 47 L 178 45 Q 180.7 46.1 180 43.5 Q 181.2 41 185 42 L 185 40 Q 188.7 41.5 188 38.5 Q 189.6 35.5 195 37 L 195 35 L 200 35 L 200 33.5 Q 201.8 30.3 208.5 32 L 210.5 30 L 239 30 Q 237.9 33.5 245.5 32 Q 247 36.3 253 35 Q 251.7 38.7 257.5 37 L 260 38 L 260 40 L 263 40 L 263 42 Q 266.7 40.5 266 43.5 L 273 47 Q 272 50 275 49 L 275 52 Q 278.8 50.5 278 53.5 L 283 59.5 L 283 62 L 285 62 L 285 67 L 288 67 Q 286.5 73.3 290 72.5 L 290 79 L 291.5 79 L 293 80.5 L 293 111.5 L 290 113 L 290 119.5 Q 287 118.5 288 123.5 L 285 125 Q 286 129.3 283 128.5 L 283 133 L 280 133 Q 281 136 278 135 L 278 138 L 275 138 Q 276 141 273 140 L 273 143 Q 270 142 271 145 L 268 145 L 268 147 Q 265.3 145.9 266 148.5 L 265.5 150 L 268 150 L 268 148 Q 271.7 149.5 271 146.5 Q 272.2 144 276 145 Q 274.8 142 278.5 143 L 283 140 Q 281.7 136.7 286.5 138 L 288 135 Q 291 136 290 133 L 293 133 L 293 130 L 296 130 L 296 128 L 298 128 Q 296.9 125.3 299.5 126 Q 300.8 122.2 305 123 Q 304 120 307 121 L 307 118.5 Q 314.5 113.9 317 106 L 320 106 Q 318.7 101.9 322 103 L 322 99 L 325 99 Q 324 94.8 327 95.5 L 327 91 Q 329.7 92.1 329 89.5 L 330 86 Q 332.7 87.1 332 84.5 L 335.5 76 L 337 76 L 337 69.5 Q 340.5 70.3 339 64 L 342 63.5 L 342 55.5 L 344 53.5 L 344 41.5 L 345.5 40 L 347 39.5 L 347 23.5 L 348.5 23 L 351.5 20 Z M 355 25 L 353 26 L 351 28 L 351 37 L 348 49 L 348 54 L 341 76 Q 330 101 313 120 Q 310 119 311 122 L 309 122 L 309 124 L 306 126 Q 307 128 304 127 L 304 129 L 274 151 L 250 164 L 225 174 L 223 176 L 220 176 L 218 178 L 212 179 L 210 181 L 171 193 L 165 196 L 162 196 L 160 198 Q 147 200 139 206 L 136 206 L 134 208 L 131 208 L 91 228 L 65 247 Q 50 260 40 278 L 34 294 L 32 304 L 32 318 Q 35 321 34 328 L 42 347 L 47 353 Q 46 355 49 354 L 53 359 Q 55 358 54 361 L 70 374 L 72 374 L 79 379 L 91 384 L 106 387 L 137 386 L 156 379 L 159 379 L 163 376 L 135 375 L 130 373 L 120 372 L 101 365 L 86 355 L 76 340 L 72 324 L 73 305 L 78 294 L 82 289 Q 90 278 102 271 Q 104 272 103 269 L 134 252 L 139 251 L 145 247 L 171 237 L 202 227 L 206 227 L 209 225 L 224 222 L 231 219 L 235 219 L 238 217 L 242 217 L 297 197 L 332 180 L 366 158 Q 368 159 367 156 Q 375 153 381 146 Q 383 147 382 144 L 390 139 L 392 136 L 396 133 Q 417 112 431 84 L 440 60 L 443 45 L 443 26 L 441 25 L 355 25 Z M 214 34 L 197 39 L 181 49 Q 164 62 159 86 L 159 106 L 160 111 L 167 127 L 172 133 L 174 136 L 189 148 L 199 153 L 217 157 L 232 157 L 249 153 Q 262 147 272 138 Q 271 135 274 136 L 284 121 L 289 106 L 289 86 L 288 82 L 281 65 L 274 56 Q 265 45 252 39 L 235 34 L 214 34 Z M 261 150 Q 260 153 263 152 Q 264 149 261 150 Z M 256 152 L 256 155 Q 259 156 258 153 L 260 153 L 256 152 Z M 251 155 Q 250 158 254 157 Q 255 154 251 155 Z " /><path fill="rgb(23,170,231)" stroke="rgb(23,170,231)" stroke-width="1" opacity="0.3803921568627451" d="M 380.5 157 L 386 157 L 386 167.5 L 383 169 Q 384.3 173.1 381 172 L 381 175.5 L 378 177 Q 379 181.3 376 182.5 L 376 187 Q 373 185.8 374 189.5 L 373 192 Q 369 190.6 371 197.5 L 369 199.5 L 368 206 Q 364.5 204.9 366 212.5 Q 362.3 214.4 364 221 L 361 221 L 361 230.5 L 359 231.5 L 359 246.5 L 356 248 L 356 309.5 L 358 310 L 358 311.5 L 359 312.5 L 359 329 L 361 329 L 361 338.5 L 362.5 339 Q 365.8 340.8 364 347.5 L 366 349.5 L 366 359 L 369 360.5 L 369 365.5 L 371 366 L 371 372.5 L 373 373 L 373 374.5 L 376 379.5 L 376 385.5 Q 379.5 387.2 378 393 L 381 393 L 381 398 L 383 398 L 383 403 L 384.5 403 Q 387.5 404.6 386 410 L 388 410 L 388 415 L 391 415 L 391 420 L 393 420 L 393 423 Q 395.7 421.9 395 424.5 L 396 430 L 400 432 L 400 435.5 L 403 437 L 403 441.5 Q 406 440.5 405 445.5 L 408 447 Q 407 450 410 449 L 410 452 L 411.5 452 Q 414 453.2 413 457 L 415 457 L 415 459 Q 417.7 457.9 417 460.5 Q 419.5 462 418 467.5 L 416.5 469 L 306.5 469 L 305 467.5 L 305 449 L 303 448.5 L 303 436.5 L 302 435.5 L 302 366.5 L 303 365.5 L 303 354 L 305 353.5 L 305 325.5 L 307 323.5 L 307 311.5 L 308.5 310 L 310 309.5 L 310 298.5 L 313 292.5 L 312 290 L 315 288.5 L 315 279.5 L 317 277.5 L 315 276.5 L 318 271.5 L 317 268.5 L 320 267.5 L 320 261.5 L 323 256.5 L 322 254.5 L 325 253 L 326 246.5 L 325 244.5 L 326 244.5 L 326.5 246 L 327 239.5 L 332 232.5 L 332 229 Q 334.7 230.1 334 227.5 L 334 225.5 L 335 221 L 337 221 L 337 216 Q 339.7 217.1 339 214.5 L 340 212 L 342 212 L 342 207.5 L 344 207 L 344 204.5 Q 347.8 203.2 347 199 Q 350.3 200.3 349 195.5 L 352 194 Q 351 191 354 192 L 354 187 Q 356.7 188.1 356 185.5 L 359 184 L 359 180 L 361 180 L 361 177 Q 364.8 178.5 364 175.5 Q 367 174.3 366 170 Q 369.7 171.5 369 168.5 L 371 165 L 374 165 L 374 162 Q 377 163 376 160 L 379 160 L 379 158.5 L 380.5 157 Z M 381 163 L 370 175 Q 371 177 368 176 L 348 207 L 336 231 L 336 234 L 329 248 L 326 261 L 321 274 L 314 303 L 314 308 L 311 319 L 311 326 L 309 332 Q 310 343 307 351 L 306 388 L 305 389 L 305 413 L 306 414 L 306 431 L 307 432 L 307 453 L 309 461 Q 308 465 310 465 L 413 465 L 413 463 L 394 434 L 382 410 L 367 373 L 362 353 L 359 346 L 357 331 L 355 327 L 355 320 L 353 314 L 353 305 L 352 304 L 352 291 L 351 290 L 352 255 L 353 254 L 353 246 Q 356 241 355 233 L 357 229 L 357 224 L 367 193 L 381 166 L 381 163 Z " /><path fill="rgb(23,170,231)" stroke="rgb(23,170,231)" stroke-width="1" opacity="0.3803921568627451" d="M 151 263 L 178.5 263 L 180.5 265 L 188.5 265 L 190 266.5 L 190.5 268 L 197 268 L 197 270 L 202 270 L 202 273 L 206.5 273 Q 205.5 276 210.5 275 L 212 278 Q 215 277 214 280 L 217 280 L 217 281.5 L 219 285 L 222 285 Q 221 288 224 287 L 224 290 L 226 290 Q 224.9 292.7 227.5 292 Q 230 293.2 229 297 L 231 297 Q 229.5 300.8 232.5 300 L 236 306.5 L 236 312 L 239 313.5 L 239 318.5 L 241 319 L 241 324.5 L 243 325 L 243 326.5 L 244 327.5 L 244 337 L 246 337.5 L 246 357.5 L 249 362.5 L 249 412.5 L 246 417.5 L 246 446.5 L 244 448.5 Q 245.2 458.8 243 464 L 241 464 L 240.5 469 L 158 469 L 158 459.5 Q 161.3 460.5 160 454.5 L 161 452 L 163 452 Q 161.7 447.9 165 449 L 165 443.5 L 168 442 L 168 437 L 170 437 L 170 432 L 173 432 Q 171.5 425.7 175 426.5 L 175 420.5 L 177 420 L 177 417.5 L 178 413 Q 181.7 414.4 180 408.5 L 182 406.5 L 183 401 L 185 400.5 L 185 392.5 L 187 390.5 Q 185.5 384.5 188.5 383 L 190 382.5 L 190 375.5 Q 194 373.5 192 365.5 L 195 361.5 L 195 338.5 L 197 335.5 L 195 333.5 L 195 314 L 192 312.5 L 192 307 L 190 307 Q 191.5 303.2 188.5 304 L 187 300 Q 183.7 301.1 185 297 L 182 297 L 182 295 L 178 295 L 178 292 Q 171.7 293.5 172.5 290 L 168.5 290 L 166 289 L 165.5 287 L 146.5 287 L 145 290 L 138.5 290 L 138 292 L 133 292 L 133 293.5 Q 131.4 296.5 126 295 L 126 297 L 123 297 Q 124.1 299.7 121.5 299 L 116 302 Q 117.3 305.3 112.5 304 L 111 307 L 105.5 308 L 102 307 L 102 300 L 104 300 L 104 295 Q 106.7 296.1 106 293.5 L 109 292 L 109 288 L 111 288 L 111 285 Q 114.7 286.5 114 283.5 L 116 280 L 119 280 L 119 278 Q 121.7 279.1 121 276.5 Q 122.2 274 126 275 L 126 273 Q 129.8 274.5 129 271.5 Q 130.6 268.5 136 270 L 136 268 L 141 268 Q 139.9 265.3 142.5 266 L 143.5 265 L 151 265 L 151 263 Z M 159 267 L 138 272 L 123 282 Q 120 281 121 284 L 118 286 Q 119 288 116 287 L 108 299 L 108 301 L 107 303 L 109 303 L 116 297 L 133 288 L 151 283 Q 161 282 168 284 L 186 293 Q 192 299 196 308 L 200 325 L 200 349 L 199 350 L 198 364 L 196 369 L 196 375 L 194 378 L 194 383 L 177 431 L 167 454 L 162 462 L 163 465 L 237 465 L 242 441 L 242 431 L 244 422 L 244 405 L 245 404 L 244 356 L 242 350 L 242 342 Q 239 339 240 333 L 232 309 L 223 294 L 215 284 L 195 272 L 173 267 L 159 267 Z " /><path fill="rgb(0,0,0)" stroke="rgb(0,0,0)" stroke-width="1" opacity="0" d="M 0 0 L 500 0 L 500 500 L 0 500 L 0 0 Z M 352 20 L 349 23 L 347 24 L 347 40 L 346 40 L 344 42 L 344 54 L 342 56 L 342 64 L 339 64 Q 341 70 337 70 L 337 76 L 336 76 L 332 85 Q 333 87 330 86 L 329 90 Q 330 92 327 91 L 327 96 Q 324 95 325 99 L 322 99 L 322 103 Q 319 102 320 106 L 317 106 Q 314 114 307 119 L 307 121 Q 304 120 305 123 Q 301 122 300 126 Q 297 125 298 128 L 296 128 L 296 130 L 293 130 L 293 133 L 290 133 Q 291 136 288 135 L 287 138 Q 282 137 283 140 L 279 143 Q 275 142 276 145 Q 272 144 271 147 Q 272 150 268 148 L 268 150 L 266 150 L 266 149 Q 265 146 268 147 L 268 145 L 271 145 Q 270 142 273 143 L 273 140 Q 276 141 275 138 L 278 138 L 278 135 Q 281 136 280 133 L 283 133 L 283 129 Q 286 129 285 125 L 288 124 Q 287 119 290 120 L 290 113 L 293 112 L 293 81 L 292 79 L 290 79 L 290 73 Q 287 73 288 67 L 285 67 L 285 62 L 283 62 L 283 60 L 278 54 Q 279 51 275 52 L 275 49 Q 272 50 273 47 L 266 44 Q 267 41 263 42 L 263 40 L 260 40 L 260 38 L 258 37 Q 252 39 253 35 Q 247 36 246 32 Q 238 34 239 30 L 211 30 L 209 32 Q 202 30 200 34 L 200 35 L 195 35 L 195 37 Q 190 35 188 39 Q 189 41 185 40 L 185 42 Q 181 41 180 44 Q 181 46 178 45 L 178 47 L 175 47 Q 176 50 173 49 L 173 52 L 170 52 Q 171 55 168 54 L 168 57 L 165 59 Q 166 64 163 63 L 163 67 L 160 67 L 160 72 L 158 72 L 158 77 L 155 82 L 155 109 L 156 110 Q 155 115 158 114 L 158 120 L 160 121 L 160 125 L 163 125 Q 162 128 165 130 L 165 133 L 168 133 Q 167 136 170 135 L 170 138 L 173 142 L 178 145 L 180 145 L 180 147 Q 183 146 182 149 L 187 152 Q 191 151 190 154 L 193 155 Q 198 153 197 157 L 204 157 L 205 159 L 206 160 L 215 160 L 215 162 L 233 162 L 235 160 L 243 160 L 244 159 Q 243 156 250 157 L 249 159 L 249 160 L 244 160 L 244 162 L 239 162 L 239 165 L 234 165 L 234 167 L 229 168 Q 226 167 227 170 L 222 170 L 222 172 L 217 172 L 217 175 L 210 175 L 210 177 L 204 177 L 197 181 L 197 182 L 190 182 L 190 184 Q 182 182 181 187 L 174 187 Q 174 190 167 189 L 165 192 Q 160 191 159 194 L 153 194 L 153 197 L 147 197 L 146 199 L 140 199 L 139 201 L 123 207 Q 120 206 121 209 L 116 209 L 116 211 L 113 211 L 111 214 Q 107 213 106 216 L 102 216 L 102 219 L 97 219 L 97 221 Q 93 220 92 223 L 92 224 L 88 224 L 88 226 L 84 226 L 83 229 Q 79 228 80 231 L 77 231 L 77 233 L 72 236 Q 69 235 70 238 L 67 238 L 67 241 Q 64 240 65 243 Q 61 242 60 246 Q 57 245 58 248 L 55 250 Q 56 252 53 251 Q 54 255 50 257 Q 51 259 48 258 L 48 260 L 45 262 Q 46 264 43 263 L 43 268 L 40 268 L 38 272 Q 39 276 37 275 Q 34 276 35 281 L 33 283 L 33 287 L 30 290 L 30 297 L 28 297 L 28 324 L 30 324 L 30 331 L 31 332 L 31 334 L 33 335 L 33 339 L 35 339 Q 34 344 38 346 Q 37 350 40 349 L 41 352 Q 40 354 43 353 L 43 356 L 45 356 L 45 358 L 48 358 L 48 361 Q 51 360 50 363 L 53 365 Q 52 367 55 366 L 55 368 L 57 368 L 59 371 Q 61 370 60 373 L 65 373 L 65 376 Q 68 375 67 378 L 72 378 L 74 381 Q 76 380 75 383 L 80 383 L 80 385 L 87 385 L 88 388 L 97 388 L 97 390 L 136 390 L 137 388 L 148 388 L 148 385 L 155 385 L 155 383 Q 162 384 165 381 L 169 377 L 169 375 L 168 373 Q 162 375 161 372 L 151 372 L 150 373 L 148 373 L 148 371 L 131 371 L 130 368 L 122 368 L 121 366 Q 113 368 111 363 L 107 363 L 106 361 L 102 361 Q 102 358 97 359 L 96 356 Q 93 357 94 354 L 91 353 Q 92 350 89 351 L 89 349 L 87 349 L 87 346 L 84 346 L 82 340 L 79 337 Q 81 331 77 332 L 77 305 Q 81 305 79 299 L 82 299 L 82 295 Q 85 296 84 292 L 87 292 L 87 287 Q 90 288 89 285 Q 93 286 94 284 Q 93 281 96 282 L 96 280 L 99 280 L 101 275 Q 105 276 108 273 L 109 270 Q 112 271 114 268 Q 118 269 116 265 L 121 265 L 121 263 Q 125 264 126 262 L 126 260 L 130 260 L 130 258 Q 135 259 136 257 L 136 255 L 141 255 L 141 253 L 145 253 L 150 250 L 151 248 L 158 248 L 158 246 Q 163 247 165 245 L 165 243 L 170 243 L 170 241 L 176 241 L 177 238 L 185 238 L 187 236 Q 191 237 193 235 Q 195 236 194 233 L 199 233 L 199 231 L 208 231 L 209 230 L 210 228 L 219 228 L 219 226 L 228 226 L 234 223 L 236 223 L 237 221 L 246 221 L 246 219 L 252 218 L 255 216 L 254 218 Q 255 220 251 219 L 251 222 L 249 222 L 249 226 L 246 226 L 246 234 L 244 234 L 244 240 Q 247 241 246 246 L 249 249 Q 247 254 251 253 Q 250 257 253 258 Q 255 257 254 260 L 256 260 L 258 263 Q 260 262 259 265 L 262 266 Q 264 265 263 268 L 266 268 L 266 270 L 273 275 L 276 275 Q 275 278 279 277 L 279 279 L 282 280 Q 284 279 283 282 L 288 282 L 287 284 L 290 285 L 293 285 Q 292 288 295 287 L 297 290 Q 301 289 300 292 L 307 293 L 310 292 L 312 289 L 312 277 L 315 278 L 315 289 L 312 290 Q 314 297 310 299 L 310 310 L 309 310 L 307 312 L 307 324 L 305 326 L 305 354 L 303 354 L 303 366 L 302 367 L 302 436 L 303 437 L 303 449 L 305 449 L 305 468 L 307 469 L 417 469 L 418 468 Q 420 462 417 461 Q 418 458 415 459 L 415 457 L 413 457 Q 414 453 412 452 L 410 452 L 410 449 Q 407 450 408 447 L 405 446 Q 406 441 403 442 L 403 437 L 400 436 L 400 432 L 396 430 L 395 425 Q 396 422 393 423 L 393 420 L 391 420 L 391 415 L 388 415 L 388 410 L 386 410 Q 387 405 385 403 L 383 403 L 383 398 L 381 398 L 381 393 L 378 393 Q 380 387 376 386 L 376 380 L 373 375 L 373 373 L 371 373 L 371 366 L 369 366 L 369 361 L 366 359 L 366 350 L 364 348 Q 366 341 363 339 L 361 339 L 361 329 L 359 329 L 359 313 L 358 312 L 358 310 L 356 310 L 356 248 L 359 247 L 359 232 L 361 231 L 361 221 L 364 221 Q 362 214 366 213 Q 365 205 368 206 L 369 200 L 371 198 Q 369 191 373 192 L 374 190 Q 373 186 376 187 L 376 183 Q 379 181 378 177 L 381 176 L 381 172 L 383 172 Q 381 168 385 169 L 386 168 L 386 157 Q 381 155 379 159 L 379 160 L 376 160 Q 377 163 374 162 L 374 165 L 371 165 L 369 169 Q 370 172 366 170 Q 367 174 364 176 Q 365 178 361 177 L 361 180 L 359 180 L 359 184 L 356 186 Q 357 188 354 187 L 354 192 Q 351 191 352 194 L 349 196 Q 350 200 347 199 Q 348 203 344 205 L 344 207 L 342 208 L 342 212 L 340 212 L 339 215 Q 340 217 337 216 L 337 221 L 335 221 L 334 224 Q 336 230 332 229 L 332 233 L 327 240 Q 328 245 325 245 L 325 253 L 324 253 Q 321 254 322 260 L 320 262 L 320 268 L 317 268 L 317 260 L 320 259 L 320 251 L 322 250 L 322 243 L 324 243 Q 324 239 327 237 Q 325 230 329 231 Q 328 225 332 224 L 332 221 L 334 221 L 334 216 L 337 216 Q 336 212 339 211 L 339 206 L 336 204 L 319 204 L 308 209 L 307 212 L 307 214 L 305 215 L 305 219 L 303 219 L 303 223 L 300 221 Q 301 217 297 219 L 297 217 L 292 216 L 290 214 L 266 214 L 266 213 L 267 211 L 275 211 Q 274 208 280 209 L 280 206 L 287 206 Q 288 203 292 204 L 294 201 L 300 201 L 300 199 L 305 199 L 305 197 L 309 196 Q 311 197 310 194 L 314 194 L 320 191 L 320 189 L 324 189 L 324 187 L 329 187 L 329 184 Q 335 186 335 182 L 339 182 L 339 179 L 346 177 L 347 174 Q 350 175 352 172 Q 355 173 354 170 L 358 169 Q 360 170 359 167 L 361 167 L 361 165 Q 365 166 366 164 Q 365 161 369 162 L 369 160 L 372 159 Q 374 160 373 157 L 376 157 L 376 155 L 378 155 L 378 152 L 385 150 L 387 147 L 390 145 L 393 140 L 398 137 Q 397 134 400 135 L 400 133 L 403 133 L 403 130 Q 406 131 405 128 L 408 127 Q 407 124 410 125 L 410 122 L 412 122 L 413 120 Q 412 117 415 118 L 415 116 L 418 115 Q 417 112 420 113 L 420 108 L 425 105 L 425 101 Q 428 102 427 98 L 430 97 Q 429 92 432 93 L 432 88 L 434 88 L 435 86 L 435 82 Q 439 82 437 76 L 440 76 Q 439 71 442 70 L 442 62 L 444 61 Q 446 58 445 52 L 447 49 L 447 24 L 446 22 L 444 22 L 444 20 L 352 20 Z M 151 263 L 151 265 L 144 265 L 143 266 Q 140 265 141 268 L 136 268 L 136 270 Q 131 268 129 272 Q 130 275 126 273 L 126 275 Q 122 274 121 277 Q 122 279 119 278 L 119 280 L 116 280 L 114 284 Q 115 286 111 285 L 111 288 L 109 288 L 109 292 L 106 294 Q 107 296 104 295 L 104 300 L 102 300 L 102 307 L 106 308 L 111 307 L 113 304 Q 117 305 116 302 L 122 299 Q 124 300 123 297 L 126 297 L 126 295 Q 131 296 133 294 L 133 292 L 138 292 L 139 290 L 145 290 L 147 287 L 166 287 L 166 289 L 169 290 L 173 290 Q 172 294 178 292 L 178 295 L 182 295 L 182 297 L 185 297 Q 184 301 187 300 L 189 304 Q 192 303 190 307 L 192 307 L 192 313 L 195 314 L 195 334 L 197 336 L 195 339 L 195 362 L 192 366 Q 194 373 190 376 L 190 383 L 189 383 Q 185 385 187 391 L 185 393 L 185 401 L 183 401 L 182 407 L 180 409 Q 182 414 178 413 L 177 418 L 177 420 L 175 421 L 175 427 Q 172 426 173 432 L 170 432 L 170 437 L 168 437 L 168 442 L 165 444 L 165 449 Q 162 448 163 452 L 161 452 L 160 455 Q 161 460 158 460 L 158 469 L 241 469 L 241 464 L 243 464 Q 245 459 244 449 L 246 447 L 246 418 L 249 413 L 249 363 L 246 358 L 246 338 L 244 337 L 244 328 L 243 327 L 243 325 L 241 325 L 241 319 L 239 319 L 239 314 L 236 312 L 236 307 L 233 300 Q 229 301 231 297 L 229 297 Q 230 293 228 292 Q 225 293 226 290 L 224 290 L 224 287 Q 221 288 222 285 L 219 285 L 217 282 L 217 280 L 214 280 Q 215 277 212 278 L 211 275 Q 206 276 207 273 L 202 273 L 202 270 L 197 270 L 197 268 L 191 268 L 190 267 L 189 265 L 181 265 L 179 263 L 151 263 Z " /><path fill="rgb(0,0,0)" stroke="rgb(0,0,0)" stroke-width="1" opacity="0" d="M 261 150 Q 264 149 263 152 Q 260 153 261 150 Z " /><path fill="rgb(0,0,0)" stroke="rgb(0,0,0)" stroke-width="1" opacity="0" d="M 256 152 L 260 152.5 L 258 153 Q 259 156 256 155 L 256 152 Z " /><path fill="rgb(0,0,0)" stroke="rgb(0,0,0)" stroke-width="1" opacity="0" d="M 251 155 Q 255.1 153.7 254 157 Q 249.9 158.3 251 155 Z " /><path fill="rgb(0,0,0)" stroke="rgb(0,0,0)" stroke-width="1" opacity="0" d="M 316.5 269 L 317 274.5 L 315 275.5 Q 313.8 270.3 316.5 269 Z " /><path fill="rgb(0,158,229)" stroke="rgb(0,158,229)" stroke-width="1" opacity="0.996078431372549" d="M 317 211 L 329.5 211 L 330 214 L 327 215.5 Q 327.8 219.8 325 220.5 L 325 224.5 L 320 231.5 L 320 236 Q 317 234.8 318 238.5 L 315 244.5 L 315 252.5 L 310 262.5 L 310 269 Q 306.5 267.9 308 275.5 L 306 278.5 L 305 285 L 302 285 L 302 283 L 299 283 Q 300.3 280 296.5 281 L 292 280 Q 293.1 277.3 290.5 278 L 275.5 268 L 273 268 L 269.5 263 Q 266.9 263.7 268 261 L 265 261 L 265 259.5 L 258 251 Q 255.3 252.1 256 249.5 L 255 246 Q 251.3 247.3 253 241.5 Q 249.7 240.2 251 234.5 Q 254.3 233 253 228 L 256 226.5 L 258.5 223 Q 261.1 223.7 260 221 L 264.5 221 L 271.5 219 L 278.5 219 Q 282.1 221.9 289.5 221 L 295.5 226 L 298 226 Q 296.8 229 300.5 228 Q 301.3 230.8 305.5 230 L 309 226.5 Q 309 219.2 312 216 Q 314.7 217.1 314 214.5 L 317 213 L 317 211 Z " /><path fill="rgb(0,167,235)" stroke="rgb(0,167,235)" stroke-width="1" opacity="1" d="M 354.5 25 L 440.5 25 L 443 26 L 443 44.5 L 440 59.5 L 431 83.5 Q 417.4 112.4 395.5 133 L 392 135.5 L 389.5 139 L 382 144 Q 383.1 146.7 380.5 146 Q 375.1 153.2 367 156 Q 368.1 158.7 365.5 158 L 331.5 180 L 296.5 197 L 241.5 217 L 237.5 217 L 234.5 219 L 230.5 219 L 223.5 222 L 208.5 225 L 205.5 227 L 201.5 227 L 170.5 237 L 144.5 247 L 138.5 251 L 133.5 252 L 103 269 Q 104.1 271.7 101.5 271 Q 89.9 277.9 82 288.5 L 78 293.5 L 73 304.5 L 72 323.5 L 76 339.5 L 86 355 L 100.5 365 L 119.5 372 L 129.5 373 L 134.5 375 L 163 375.5 L 158.5 379 L 155.5 379 L 136.5 386 L 105.5 387 L 90.5 384 L 78.5 379 L 71.5 374 L 69.5 374 L 54 360.5 Q 54.8 358.3 52.5 359 L 49 354 Q 46.3 355.1 47 352.5 L 42 346.5 L 34 327.5 Q 34.7 320.8 32 317.5 L 32 303.5 L 34 293.5 L 40 277.5 Q 50 260 64.5 247 L 90.5 228 L 130.5 208 L 133.5 208 L 135.5 206 L 138.5 206 Q 147.3 200.3 159.5 198 L 161.5 196 L 164.5 196 L 170.5 193 L 209.5 181 L 211.5 179 L 217.5 178 L 219.5 176 L 222.5 176 L 224.5 174 L 249.5 164 L 273.5 151 L 304 129 L 304 127 Q 306.7 128.1 306 125.5 L 309 124 L 309 122 L 311 122 Q 309.9 119.3 312.5 120 Q 330.4 101.4 341 75.5 L 348 53.5 L 348 48.5 L 351 36.5 L 351 27.5 L 352.5 26 L 354.5 25 Z " /><path fill="rgb(0,167,235)" stroke="rgb(0,167,235)" stroke-width="1" opacity="1" d="M 213.5 34 L 234.5 34 L 251.5 39 Q 264.8 45.2 274 55.5 L 281 64.5 L 288 81.5 L 289 85.5 L 289 105.5 L 284 120.5 L 274 136 Q 271.3 134.9 272 137.5 Q 262.3 147.3 248.5 153 L 231.5 157 L 216.5 157 L 198.5 153 L 188.5 148 L 174 135.5 L 172 132.5 L 167 126.5 L 160 110.5 L 159 105.5 L 159 85.5 Q 164.3 61.8 180.5 49 L 196.5 39 L 213.5 34 Z " /><path fill="rgb(0,167,235)" stroke="rgb(0,167,235)" stroke-width="1" opacity="1" d="M 380.5 163 L 381 165.5 L 367 192.5 L 357 223.5 L 357 228.5 L 355 232.5 Q 355.9 240.9 353 245.5 L 353 253.5 L 352 254.5 L 351 289.5 L 352 290.5 L 352 303.5 L 353 304.5 L 353 313.5 L 355 319.5 L 355 326.5 L 357 330.5 L 359 345.5 L 362 352.5 L 367 372.5 L 382 409.5 L 394 433.5 L 413 462.5 L 413 465 L 309.5 465 Q 308.5 465 309 460.5 L 307 452.5 L 307 431.5 L 306 430.5 L 306 413.5 L 305 412.5 L 305 388.5 L 306 387.5 L 307 350.5 Q 310.3 343.3 309 331.5 L 311 325.5 L 311 318.5 L 314 307.5 L 314 302.5 L 317 289.5 L 319 286.5 L 319 280.5 Q 321.8 278.8 321 273.5 L 328 254.5 L 329 247.5 L 336 233.5 L 336 230.5 L 348 206.5 L 368 176 Q 370.7 177.1 370 174.5 L 380.5 163 Z " /><path fill="rgb(0,167,235)" stroke="rgb(0,167,235)" stroke-width="1" opacity="1" d="M 158.5 267 L 172.5 267 L 194.5 272 L 215 284 L 223 293.5 L 232 308.5 L 240 332.5 Q 239.2 338.8 242 341.5 L 242 349.5 L 244 355.5 L 245 403.5 L 244 404.5 L 244 421.5 L 242 430.5 L 242 440.5 L 237 465 L 162.5 465 L 162 461.5 L 167 453.5 L 177 430.5 L 194 382.5 L 194 377.5 L 196 374.5 L 196 368.5 L 198 363.5 L 199 349.5 L 200 348.5 L 200 324.5 L 196 307.5 Q 192.4 298.6 185.5 293 L 167.5 284 Q 160.8 281.7 150.5 283 L 132.5 288 L 115.5 297 L 108.5 303 L 106.5 303 L 108 300.5 L 108 298.5 L 116 287 Q 118.7 288.1 118 285.5 L 121 284 Q 119.9 281.3 122.5 282 L 137.5 272 L 158.5 267 Z " /></svg>